<svg xmlns="http://www.w3.org/2000/svg" xmlns:xlink="http://www.w3.org/1999/xlink" width="1080" zoomAndPan="magnify" viewBox="0 0 810 1012.49997" height="1350" preserveAspectRatio="xMidYMid meet" version="1.0"><defs><filter x="0%" y="0%" width="100%" height="100%" id="251e674b9a"><feColorMatrix values="0 0 0 0 1 0 0 0 0 1 0 0 0 0 1 0 0 0 1 0" color-interpolation-filters="sRGB"/></filter><g/><clipPath id="ceb5164082"><path d="M 0.199219 241 L 464 241 L 464 1012 L 0.199219 1012 Z M 0.199219 241 " clip-rule="nonzero"/></clipPath><mask id="08c8f94983"><g filter="url(#251e674b9a)"><rect x="-81" width="972" fill="#000000" y="-101.249997" height="1214.999964" fill-opacity="0.5"/></g></mask><clipPath id="0083df9686"><rect x="0" width="464" y="0" height="771"/></clipPath><clipPath id="3c8a78099d"><path d="M 293 0 L 809.800781 0 L 809.800781 823 L 293 823 Z M 293 0 " clip-rule="nonzero"/></clipPath><mask id="09c7c721c8"><g filter="url(#251e674b9a)"><rect x="-81" width="972" fill="#000000" y="-101.249997" height="1214.999964" fill-opacity="0.5"/></g></mask><clipPath id="a1abba436e"><path d="M 4 233 L 516.800781 233 L 516.800781 625 L 4 625 Z M 4 233 " clip-rule="nonzero"/></clipPath><clipPath id="f787ad48f9"><rect x="0" width="517" y="0" height="823"/></clipPath></defs><g clip-path="url(#ceb5164082)"><g mask="url(#08c8f94983)"><g transform="matrix(1, 0, 0, 1, 0.000000000000000028, 241)"><g clip-path="url(#0083df9686)"><g fill="#451662" fill-opacity="1"><g transform="translate(-11.044533, 595.469568)"><g><path d="M 389.109375 3.921875 L 110.125 -261.375 L 110.125 -99.359375 C 110.125 -93.804688 110.53125 -87.601562 111.34375 -80.75 C 112.164062 -73.90625 113.878906 -67.300781 116.484375 -60.9375 C 119.097656 -54.570312 122.28125 -48.859375 126.03125 -43.796875 C 129.78125 -38.742188 135.082031 -33.769531 141.9375 -28.875 C 148.789062 -23.976562 158.253906 -19.898438 170.328125 -16.640625 L 201.171875 -8.8125 L 201.171875 0 L 22.03125 0 L 22.03125 -8.8125 L 42.09375 -16.640625 C 55.46875 -21.859375 66.148438 -28.21875 74.140625 -35.71875 C 82.140625 -43.226562 88.015625 -52.039062 91.765625 -62.15625 C 95.523438 -72.269531 97.40625 -84.671875 97.40625 -99.359375 L 97.40625 -273.109375 L 92.5 -278.015625 C 91.519531 -278.992188 88.664062 -281.925781 83.9375 -286.8125 C 79.207031 -291.707031 73.988281 -296.679688 68.28125 -301.734375 C 62.570312 -306.796875 56.453125 -311.285156 49.921875 -315.203125 C 43.398438 -319.117188 36.875 -321.894531 30.34375 -323.53125 L 12.234375 -328.421875 L 12.234375 -337.234375 L 173.75 -337.234375 L 384.703125 -138.03125 L 384.703125 -237.875 C 384.703125 -262.019531 379.484375 -280.617188 369.046875 -293.671875 C 358.609375 -306.722656 344.085938 -315.695312 325.484375 -320.59375 L 294.65625 -328.421875 L 294.65625 -337.234375 L 472.328125 -337.234375 L 472.328125 -328.421875 L 452.25 -320.59375 C 438.875 -315.375 428.1875 -309.007812 420.1875 -301.5 C 412.195312 -294 406.328125 -285.191406 402.578125 -275.078125 C 398.828125 -264.960938 396.953125 -252.5625 396.953125 -237.875 L 396.953125 3.921875 Z M 384.21875 -17.625 L 384.21875 -77.328125 L 123.34375 -325 L 51.390625 -325.484375 L 51.390625 -325 C 56.285156 -322.71875 62.160156 -319.453125 69.015625 -315.203125 C 75.867188 -310.960938 86.472656 -301.828125 100.828125 -287.796875 Z M 390.09375 -271.640625 L 390.578125 -271.640625 L 390.578125 -325.484375 L 344.578125 -325.484375 L 344.578125 -325 C 368.398438 -315.207031 383.570312 -297.421875 390.09375 -271.640625 Z M 57.75 -11.75 L 104.25 -11.75 L 104.25 -65.59375 L 103.28125 -65.59375 C 100.007812 -52.863281 94.617188 -42.253906 87.109375 -33.765625 C 79.609375 -25.285156 69.820312 -18.109375 57.75 -12.234375 Z M 57.75 -11.75 "/></g></g></g></g></g></g></g><g clip-path="url(#3c8a78099d)"><g mask="url(#09c7c721c8)"><g transform="matrix(1, 0, 0, 1, 293, 0)"><g clip-path="url(#f787ad48f9)"><g clip-path="url(#a1abba436e)"><g fill="#451662" fill-opacity="1"><g transform="translate(9.833178, 624.865657)"><g><path d="M -5.515625 0 L -5.515625 -9.921875 L 3.859375 -12.125 C 14.148438 -14.695312 23.519531 -19.472656 31.96875 -26.453125 C 40.414062 -33.429688 48.585938 -42.613281 56.484375 -54 C 64.390625 -65.394531 73.671875 -81.382812 84.328125 -101.96875 L 238.640625 -391.3125 L 246.359375 -391.3125 L 445.328125 -50.15625 C 451.929688 -38.394531 459.644531 -29.570312 468.46875 -23.6875 C 477.289062 -17.8125 487.578125 -13.773438 499.328125 -11.578125 L 507.59375 -9.921875 L 507.59375 0 L 252.96875 0 L 252.96875 -9.921875 L 273.359375 -13.78125 C 283.285156 -15.613281 291.367188 -18 297.609375 -20.9375 C 303.859375 -23.882812 308.082031 -27.285156 310.28125 -31.140625 C 312.488281 -34.992188 313.59375 -38.578125 313.59375 -41.890625 C 313.59375 -49.234375 310.472656 -58.234375 304.234375 -68.890625 L 279.421875 -111.328125 L 105.265625 -111.328125 L 104.171875 -109.125 C 101.222656 -103.613281 98.644531 -96.816406 96.4375 -88.734375 C 94.238281 -80.648438 93.140625 -73.671875 93.140625 -67.796875 C 93.140625 -54.566406 97.457031 -43.175781 106.09375 -33.625 C 114.726562 -24.070312 126.945312 -17.457031 142.75 -13.78125 L 158.734375 -9.921875 L 158.734375 0 Z M 310.296875 -13.234375 L 414.453125 -13.234375 C 412.984375 -14.328125 410.503906 -16.894531 407.015625 -20.9375 C 403.523438 -24.976562 399.484375 -30.394531 394.890625 -37.1875 C 390.296875 -43.988281 384.328125 -53.820312 376.984375 -66.6875 L 222.109375 -332.890625 L 195.109375 -281.640625 L 316.359375 -75.5 C 323.703125 -62.644531 327.375 -51.441406 327.375 -41.890625 C 327.375 -36.378906 325.90625 -31.140625 322.96875 -26.171875 C 320.03125 -21.210938 315.804688 -17.082031 310.296875 -13.78125 Z M 112.4375 -124.5625 L 271.71875 -124.5625 L 187.9375 -267.859375 Z M 34.71875 -13.234375 L 83.765625 -13.234375 C 75.679688 -23.878906 74.765625 -42.613281 81.015625 -69.4375 L 80.46875 -69.4375 C 65.769531 -43.351562 50.519531 -24.800781 34.71875 -13.78125 Z M 34.71875 -13.234375 "/></g></g></g></g></g></g></g></g></svg>